<svg width="21" height="21" viewBox="0 0 21 21" fill="none" xmlns="http://www.w3.org/2000/svg">
    <path fill-rule="evenodd" clip-rule="evenodd"
          d="M15.5015 5.5C15.5015 8.26142 13.2623 10.5 10.5 10.5C7.73777 10.5 5.49851 8.26142 5.49851 5.5C5.49851 2.73858 7.73777 0.5 10.5 0.5C13.2623 0.5 15.5015 2.73858 15.5015 5.5ZM13.501 5.49999C13.501 3.84314 12.1575 2.49999 10.5001 2.49999C8.84275 2.49999 7.49919 3.84314 7.49919 5.49999C7.49919 7.15684 8.84275 8.49999 10.5001 8.49999C12.1575 8.49999 13.501 7.15684 13.501 5.49999ZM20.393 19.05L18.5024 15.26C17.6545 13.5683 15.9239 12.5001 14.0311 12.5H6.96893C5.07614 12.5001 3.34555 13.5683 2.49758 15.26L0.607007 19.05C0.450991 19.3595 0.466419 19.7277 0.647782 20.0231C0.829146 20.3185 1.15058 20.4989 1.49728 20.5H19.5027C19.8494 20.4989 20.1709 20.3185 20.3522 20.0231C20.5336 19.7277 20.549 19.3595 20.393 19.05ZM4.28818 16.16L3.11782 18.5H17.8823L16.7119 16.16C16.2046 15.144 15.167 14.5015 14.0311 14.5H6.96899C5.83315 14.5015 4.79552 15.144 4.28818 16.16Z"
          fill="currentColor"/>
</svg>