<svg width="512" height="512" viewBox="0 0 512 512" fill="none" xmlns="http://www.w3.org/2000/svg">
    <g clip-path="url(#clip0_78_359)">
        <rect width="512" height="512" fill="white"/>
        <path d="M176.359 141.641C175.057 141.12 173.495 140.208 171.672 138.906C169.849 137.604 167.245 136.432 163.859 135.391C160.474 134.089 156.177 133.047 150.969 132.266C145.76 131.484 139.12 131.354 131.047 131.875V92.4219C142.505 92.6823 154.094 93.9844 165.812 96.3281C177.792 98.4115 187.427 101.797 194.719 106.484C193.156 109.87 191.333 113.646 189.25 117.812C187.167 121.719 185.214 125.495 183.391 129.141C181.568 132.526 180.005 135.391 178.703 137.734C177.401 140.078 176.62 141.38 176.359 141.641ZM41.5938 172.891C41.5938 161.432 43.5469 151.146 47.4531 142.031C51.3594 132.917 56.5677 124.974 63.0781 118.203C69.849 111.172 77.6615 105.703 86.5156 101.797C95.6302 97.6302 105.135 94.8958 115.031 93.5938V134.609C106.698 137.474 99.7969 142.552 94.3281 149.844C88.8594 156.875 86.125 164.036 86.125 171.328C86.125 181.484 88.8594 189.688 94.3281 195.938C99.7969 202.188 106.698 207.656 115.031 212.344V256.875C106.438 252.708 97.8438 248.281 89.25 243.594C80.6562 238.646 72.8438 232.917 65.8125 226.406C58.7812 219.896 52.9219 212.344 48.2344 203.75C43.8073 195.156 41.5938 184.87 41.5938 172.891ZM47.8438 332.266C51.4896 334.349 56.0469 336.432 61.5156 338.516C67.2448 340.339 73.1042 342.161 79.0938 343.984C85.0833 345.547 91.0729 346.849 97.0625 347.891C103.052 348.932 108.651 349.453 113.859 349.453H115.031V386.562H114.25C108 386.562 101.49 386.172 94.7188 385.391C88.2083 384.87 81.5677 383.828 74.7969 382.266C68.026 380.703 61.5156 378.62 55.2656 376.016C49.276 373.151 44.0677 369.766 39.6406 365.859L47.8438 332.266ZM131.047 220.156C139.641 224.062 148.365 228.229 157.219 232.656C166.333 237.083 174.536 242.552 181.828 249.062C189.12 255.312 195.109 262.995 199.797 272.109C204.484 281.224 206.828 292.552 206.828 306.094C206.828 315.469 205.005 324.583 201.359 333.438C197.974 342.292 193.026 350.365 186.516 357.656C180.266 364.688 172.453 370.677 163.078 375.625C153.703 380.573 143.026 383.828 131.047 385.391V347.891C152.401 342.682 163.078 328.49 163.078 305.312C163.078 296.198 160.083 288.646 154.094 282.656C148.104 276.667 140.422 271.068 131.047 265.859V220.156Z"
              fill="#A18A68"/>
        <path d="M475.578 97.1094V385H428.703V255.312H320.109V223.281H428.703V97.1094H475.578ZM256.438 97.1094H304.094V385H256.438V97.1094Z"
              fill="black"/>
    </g>
    <defs>
        <clipPath id="clip0_78_359">
            <rect width="512" height="512" fill="white"/>
        </clipPath>
    </defs>
</svg>
